<svg width="34" height="31" viewBox="0 0 34 31" fill="none" xmlns="http://www.w3.org/2000/svg">
<g clip-path="url(#clip0_6_10773)">
<path d="M28.617 23.3949C30.0517 22.29 31.2133 20.8703 32.0125 19.2453C32.8116 17.6202 33.2268 15.8333 33.226 14.0223C33.226 4.76482 23.416 1.34126 18.142 1.43228C12.868 1.52329 11.294 2.91352 11.294 2.91352C11.294 2.91352 9.49403 1.6083 7.59403 0.513125C6.14003 -0.0539684 5.80303 -0.134982 4.79003 0.191072C3.98003 0.191072 4.49003 1.53929 4.81503 2.02537C5.14003 2.51145 6.70303 5.19189 6.70303 5.19189C6.70303 5.19189 3.41503 8.58345 3.17103 10.8128C3.17103 10.7728 1.62103 10.8008 0.771031 10.8008C-0.0789688 10.8008 0.00103107 11.727 0.00103107 11.727L0.025031 18.252C0.025031 18.252 -0.0279691 19.1782 0.743031 19.1782C1.51403 19.1782 3.14803 19.1962 3.14803 19.1962C3.14803 19.1962 5.44803 22.5387 6.90803 23.1468C6.90803 23.1869 5.64703 26.6114 5.64703 26.6114C5.56329 26.7344 5.50907 26.8751 5.48858 27.0226C5.4681 27.17 5.48191 27.3201 5.52894 27.4613C5.57597 27.6025 5.65495 27.731 5.75972 27.8367C5.8645 27.9424 5.99225 28.0224 6.13303 28.0707C7.22603 28.4707 10.079 29.6709 11.294 30.038C12.509 30.405 12.682 29.5759 12.682 29.5759L13.882 26.9755L21.75 26.9875L22.95 29.6659C22.95 29.6659 23.181 30.9091 24.8 30.221C26.419 29.5329 28.189 28.7208 29.526 28.0286C29.7003 27.9433 29.8534 27.8201 29.9741 27.6682C30.0948 27.5162 30.1802 27.3393 30.2239 27.1502C30.2677 26.9611 30.2688 26.7646 30.2271 26.5751C30.1855 26.3855 30.1021 26.2076 29.983 26.0543L28.617 23.3949ZM7.37003 12.119C7.10571 12.1196 6.84715 12.0418 6.62708 11.8954C6.407 11.7489 6.2353 11.5405 6.13369 11.2965C6.03208 11.0524 6.00514 10.7837 6.05627 10.5243C6.10739 10.265 6.2343 10.0266 6.42092 9.83938C6.60755 9.65217 6.8455 9.52453 7.10467 9.47261C7.36385 9.4207 7.63259 9.44684 7.87691 9.54774C8.12122 9.64863 8.33012 9.81974 8.47718 10.0394C8.62423 10.2591 8.70283 10.5174 8.70303 10.7818C8.70303 11.1358 8.56272 11.4753 8.31285 11.726C8.06298 11.9766 7.72393 12.118 7.37003 12.119ZM26.197 7.95535C25.771 8.46043 25.497 8.08837 25.149 7.98735C24.1023 7.08553 22.8794 6.41146 21.558 6.00803C20.0778 5.6165 18.5378 5.50256 17.016 5.67197C16.673 5.57196 16.256 5.55995 16.253 5.02987C16.271 4.37476 17.065 4.36976 17.053 4.34776C18.6691 4.21977 20.2952 4.35488 21.868 4.74782C23.2488 5.1809 24.5386 5.8629 25.674 6.76015C25.674 6.76015 26.556 7.36825 26.194 7.95335L26.197 7.95535Z" fill="#A5A5A5"/>
</g>
<defs>
<clipPath id="clip0_6_10773">
<rect width="33.227" height="30.43" fill="white"/>
</clipPath>
</defs>
</svg>
