<svg width="34" height="34" viewBox="0 0 34 34" fill="none" xmlns="http://www.w3.org/2000/svg">
<g clip-path="url(#clip0_6_10770)">
<path d="M29.75 25.5V26.9167C29.75 28.475 28.475 29.75 26.9167 29.75H7.08333C5.51083 29.75 4.25 28.475 4.25 26.9167V7.08333C4.25 5.525 5.51083 4.25 7.08333 4.25H26.9167C28.475 4.25 29.75 5.525 29.75 7.08333V8.5H17C15.4275 8.5 14.1667 9.775 14.1667 11.3333V22.6667C14.1667 24.225 15.4275 25.5 17 25.5H29.75ZM17 22.6667H31.1667V11.3333H17V22.6667ZM22.6667 19.125C21.4908 19.125 20.5417 18.1758 20.5417 17C20.5417 15.8242 21.4908 14.875 22.6667 14.875C23.8425 14.875 24.7917 15.8242 24.7917 17C24.7917 18.1758 23.8425 19.125 22.6667 19.125Z" fill="#A5A5A5"/>
</g>
<defs>
<clipPath id="clip0_6_10770">
<rect width="34" height="34" fill="white"/>
</clipPath>
</defs>
</svg>
