<svg width="18" height="12" viewBox="0 0 18 12" fill="none" xmlns="http://www.w3.org/2000/svg">
<path d="M16.5938 3.5C16.8438 3.5 17.0312 3.75 16.9688 3.96875L16.7812 4.71875C16.75 4.90625 16.5938 5 16.4375 5H15.7812C16.2188 5.375 16.5 5.90625 16.5 6.5V8C16.5 8.53125 16.2812 8.96875 16 9.3125V11C16 11.5625 15.5312 12 15 12H14C13.4375 12 13 11.5625 13 11V10H5V11C5 11.5625 4.53125 12 4 12H3C2.4375 12 2 11.5625 2 11V9.3125C1.6875 8.96875 1.5 8.53125 1.5 8V6.5C1.5 5.90625 1.75 5.375 2.1875 5H1.5625C1.375 5 1.21875 4.90625 1.1875 4.71875L1 3.96875C0.9375 3.75 1.125 3.5 1.375 3.5H3.21875L3.75 2.21875C4.28125 0.875 5.5625 0 7 0H10.9688C12.4062 0 13.6875 0.875 14.2188 2.21875L14.75 3.5H16.5938ZM5.59375 2.96875L5 4.5H13L12.375 2.96875C12.125 2.375 11.5938 2 10.9688 2H7C6.375 2 5.84375 2.375 5.59375 2.96875ZM4 8C4.59375 8 5.5 8.09375 5.5 7.5C5.5 6.90625 4.59375 6 4 6C3.375 6 3 6.40625 3 7C3 7.625 3.375 8 4 8ZM14 8C14.5938 8 15 7.625 15 7C15 6.40625 14.5938 6 14 6C13.375 6 12.5 6.90625 12.5 7.5C12.5 8.09375 13.375 8 14 8Z" fill="#DB3069"/>
</svg>
