<svg width="16" height="14" viewBox="0 0 16 14" fill="none" xmlns="http://www.w3.org/2000/svg">
<path d="M8 0C12.4062 0 16 3.59375 16 8V9.5C16 9.90625 15.75 10.25 15.4375 10.4062L14.9688 10.625C14.9062 12.5 13.375 14 11.5 14H10.75C10.3125 14 10 13.6875 10 13.25V7.75C10 7.34375 10.3125 7 10.75 7H11.5C12.4688 7 13.3438 7.40625 14 8.0625V8C14 4.71875 11.2812 2 8 2C4.6875 2 2 4.71875 2 8V8.0625C2.625 7.40625 3.5 7 4.5 7H5.25C5.65625 7 6 7.34375 6 7.75V13.25C6 13.6875 5.65625 14 5.25 14H4.5C2.59375 14 1.0625 12.5 1 10.625L0.53125 10.4062C0.21875 10.25 0 9.90625 0 9.5V8C0 3.59375 3.5625 0 8 0Z" fill="#6D597A"/>
</svg>
