<svg width="13" height="17" viewBox="0 0 13 17" fill="none" xmlns="http://www.w3.org/2000/svg">
<path d="M6.46875 1.5C6.5 1.625 7 4.4375 7 5.5C7 7.15625 6.125 8.3125 4.84375 8.78125L5.25 16.2188C5.25 16.6562 4.90625 17 4.5 17H2.5C2.0625 17 1.71875 16.6562 1.75 16.2188L2.125 8.78125C0.84375 8.3125 0 7.15625 0 5.5C0 4.4375 0.46875 1.625 0.5 1.5C0.59375 0.84375 1.90625 0.84375 2 1.53125V5.9375C2.03125 6.03125 2.46875 6.03125 2.5 5.9375C2.53125 5.15625 2.71875 1.59375 2.75 1.5C2.84375 0.84375 4.125 0.84375 4.21875 1.5C4.25 1.59375 4.4375 5.15625 4.46875 5.9375C4.5 6.03125 4.9375 6.03125 4.96875 5.9375V1.53125C5.0625 0.84375 6.375 0.84375 6.46875 1.5ZM10.2188 10.4062C5.3125 6.59375 9.65625 1 12.25 1C12.6562 1 13 1.34375 13 1.75V16.25C13 16.6875 12.6562 17 12.25 17H10.5C10.0625 17 9.6875 16.625 9.75 16.1875L10.2188 10.4062Z" fill="#FF4B3E"/>
</svg>
