<svg width="22" height="16" viewBox="0 0 22 16" fill="none" xmlns="http://www.w3.org/2000/svg">
<path d="M20.1875 3.71875C21.2188 5.40625 20.2812 7.71875 18.3438 7.96875C18.1875 8 18.0625 8 17.9062 8C16.9688 8 16.1562 7.59375 15.5938 6.96875C15.0312 7.59375 14.2188 8 13.2812 8C12.375 8 11.5312 7.59375 10.9688 6.96875C10.4062 7.59375 9.59375 8 8.6875 8C7.75 8 6.9375 7.59375 6.375 6.96875C5.8125 7.59375 5 8 4.0625 8C3.90625 8 3.78125 8 3.625 7.96875C1.6875 7.71875 0.75 5.40625 1.8125 3.71875L3.8125 0.46875C4 0.1875 4.34375 0 4.6875 0H17.3125C17.6562 0 17.9688 0.1875 18.1562 0.46875L20.1875 3.71875ZM17.9062 9C18.0938 9 18.2812 9 18.4688 8.96875C18.6562 8.96875 18.8125 8.90625 19 8.875V15C19 15.5625 18.5312 16 18 16H4C3.4375 16 3 15.5625 3 15V8.875C3.15625 8.90625 3.3125 8.9375 3.5 8.96875C3.6875 9 3.875 9 4.0625 9C4.375 9 4.6875 8.96875 5 8.90625V12H17V8.90625C17.2812 8.96875 17.5938 9 17.9062 9Z" fill="#9BC53D"/>
</svg>
