<svg width="20" height="14" viewBox="0 0 20 14" fill="none" xmlns="http://www.w3.org/2000/svg">
<path d="M3.25 2C3.65625 2 4 2.34375 4 2.75V11.25C4 11.6875 3.65625 12 3.25 12H1.75C1.3125 12 1 11.6875 1 11.25V8H0.25C0.09375 8 0 7.90625 0 7.75V6.25C0 6.125 0.09375 6 0.25 6H1V2.75C1 2.34375 1.3125 2 1.75 2H3.25ZM19.75 6C19.875 6 20 6.125 20 6.25V7.75C20 7.90625 19.875 8 19.75 8H19V11.25C19 11.6875 18.6562 12 18.25 12H16.75C16.3125 12 16 11.6875 16 11.25V2.75C16 2.34375 16.3125 2 16.75 2H18.25C18.6562 2 19 2.34375 19 2.75V6H19.75ZM14.25 0C14.6562 0 15 0.34375 15 0.75V13.25C15 13.6875 14.6562 14 14.25 14H12.75C12.3125 14 12 13.6875 12 13.25V8H8V13.25C8 13.6875 7.65625 14 7.25 14H5.75C5.3125 14 5 13.6875 5 13.25V0.75C5 0.34375 5.3125 0 5.75 0H7.25C7.65625 0 8 0.34375 8 0.75V6H12V0.75C12 0.34375 12.3125 0 12.75 0H14.25Z" fill="#F58F29"/>
</svg>
