<svg width="24" height="30" viewBox="0 0 24 30" fill="none" xmlns="http://www.w3.org/2000/svg">
<g clip-path="url(#clip0_6_10869)">
<path d="M23.114 6.585L18.699 0.585C18.5844 0.412109 18.4303 0.268917 18.2495 0.167213C18.0687 0.065508 17.8663 0.00819795 17.659 0H2.207C0.99 0 0 1.345 0 3V27C0 28.654 0.99 30 2.207 30H21.337C22.554 30 23.544 28.654 23.544 27V8C23.5523 7.49495 23.4019 7.00003 23.114 6.585ZM22.073 27C22.073 27.553 21.744 28 21.337 28H2.207C1.8 28 1.471 27.553 1.471 27V3C1.471 2.447 1.8 2 2.207 2H16.923V6C16.923 7.657 17.912 9 19.13 9H22.075L22.073 27ZM19.864 8H19.128C18.317 8 17.656 7.1 17.656 6V2L22.071 8H19.864ZM11.4 7C11.2 7 11.032 6.777 11.032 6.5C11.032 6.223 11.2 6 11.4 6H15.079C15.279 6 15.447 6.224 15.447 6.5C15.447 6.776 15.281 7 15.079 7H11.4ZM11.4 10C11.2 10 11.032 9.776 11.032 9.5C11.032 9.224 11.197 9 11.4 9H15.079C15.279 9 15.447 9.224 15.447 9.5C15.447 9.776 15.281 10 15.079 10H11.4ZM11.032 12.5C11.032 12.223 11.197 12 11.4 12H20.229C20.429 12 20.597 12.224 20.597 12.5C20.597 12.776 20.431 13 20.229 13H11.4C11.2 13 11.037 12.776 11.037 12.5H11.032ZM20.232 18C20.432 18 20.6 18.223 20.6 18.5C20.6 18.777 20.434 19 20.232 19H3.311C3.111 19 2.943 18.775 2.943 18.5C2.943 18.225 3.108 18 3.311 18H20.232ZM20.232 21C20.432 21 20.6 21.223 20.6 21.5C20.6 21.777 20.434 22 20.232 22H3.311C3.111 22 2.943 21.775 2.943 21.5C2.943 21.225 3.108 21 3.311 21H20.232ZM20.232 24C20.432 24 20.6 24.223 20.6 24.5C20.6 24.777 20.434 25 20.232 25H3.311C3.111 25 2.943 24.775 2.943 24.5C2.943 24.225 3.108 24 3.311 24H20.232ZM20.232 15C20.432 15 20.6 15.224 20.6 15.5C20.6 15.776 20.434 16 20.232 16H3.311C3.111 16 2.943 15.777 2.943 15.5C2.943 15.223 3.108 15 3.311 15H20.232ZM3.679 13H8.829C9.236 13 9.565 12.553 9.565 12V6C9.565 5.447 9.236 5 8.829 5H3.679C3.272 5 2.943 5.447 2.943 6V12C2.943 12.552 3.272 13 3.679 13ZM4.415 7H8.093V11H4.415V7Z" fill="#31BBC5"/>
</g>
<defs>
<clipPath id="clip0_6_10869">
<rect width="23.545" height="30" fill="white"/>
</clipPath>
</defs>
</svg>
