<svg width="34" height="31" viewBox="0 0 34 31" fill="none" xmlns="http://www.w3.org/2000/svg">
<g clip-path="url(#clip0_6_10864)">
<path d="M28.617 23.391C30.0517 22.2863 31.2133 20.8668 32.0125 19.2421C32.8116 17.6173 33.2268 15.8307 33.226 14.02C33.226 4.76401 23.416 1.34101 18.142 1.43201C12.868 1.52301 11.294 2.91301 11.294 2.91301C11.294 2.91301 9.49403 1.60801 7.59403 0.51301C6.14003 -0.0539901 5.80303 -0.13499 4.79003 0.19101C3.98003 0.19101 4.49003 1.53901 4.81503 2.02501C5.14003 2.51101 6.70303 5.19101 6.70303 5.19101C6.70303 5.19101 3.41503 8.58201 3.17103 10.811C3.17103 10.771 1.62103 10.799 0.771031 10.799C-0.0789688 10.799 0.00103107 11.725 0.00103107 11.725L0.025031 18.249C0.025031 18.249 -0.0279691 19.175 0.743031 19.175C1.51403 19.175 3.14803 19.193 3.14803 19.193C3.14803 19.193 5.44803 22.535 6.90803 23.143C6.90803 23.183 5.64703 26.607 5.64703 26.607C5.56329 26.73 5.50907 26.8707 5.48858 27.0181C5.4681 27.1655 5.48191 27.3156 5.52894 27.4568C5.57597 27.598 5.65495 27.7264 5.75972 27.8321C5.8645 27.9377 5.99225 28.0178 6.13303 28.066C7.22603 28.466 10.079 29.666 11.294 30.033C12.509 30.4 12.682 29.571 12.682 29.571L13.882 26.971L21.75 26.983L22.95 29.661C22.95 29.661 23.181 30.904 24.8 30.216C26.419 29.528 28.189 28.716 29.526 28.024C29.7003 27.9387 29.8534 27.8155 29.9741 27.6636C30.0948 27.5117 30.1802 27.3347 30.2239 27.1457C30.2677 26.9566 30.2688 26.7602 30.2271 26.5707C30.1855 26.3811 30.1021 26.2033 29.983 26.05L28.617 23.391ZM7.37003 12.117C7.10571 12.1176 6.84715 12.0398 6.62708 11.8934C6.407 11.747 6.2353 11.5386 6.13369 11.2946C6.03208 11.0506 6.00514 10.7819 6.05627 10.5226C6.10739 10.2633 6.2343 10.0249 6.42092 9.83774C6.60755 9.65055 6.8455 9.52293 7.10467 9.47103C7.36385 9.41912 7.63259 9.44526 7.87691 9.54614C8.12122 9.64701 8.33012 9.81809 8.47718 10.0377C8.62423 10.2574 8.70283 10.5157 8.70303 10.78C8.70303 11.1339 8.56272 11.4734 8.31285 11.724C8.06298 11.9746 7.72393 12.116 7.37003 12.117ZM26.197 7.95401C25.771 8.45901 25.497 8.08701 25.149 7.98601C24.1023 7.08434 22.8794 6.41038 21.558 6.00701C20.0778 5.61555 18.5378 5.50163 17.016 5.67101C16.673 5.57101 16.256 5.55901 16.253 5.02901C16.271 4.37401 17.065 4.36901 17.053 4.34701C18.6691 4.21905 20.2952 4.35414 21.868 4.74701C23.2488 5.18002 24.5386 5.86191 25.674 6.75901C25.674 6.75901 26.556 7.36701 26.194 7.95201L26.197 7.95401Z" fill="#31BBC5"/>
</g>
<defs>
<clipPath id="clip0_6_10864">
<rect width="33.227" height="30.425" fill="white"/>
</clipPath>
</defs>
</svg>
