<svg width="23" height="33" viewBox="0 0 23 33" fill="none" xmlns="http://www.w3.org/2000/svg">
<path d="M20.9093 7.70847H20.7191V2.88482C20.7191 2.14438 20.4015 1.43428 19.8361 0.910714C19.2707 0.387149 18.5039 0.0930152 17.7043 0.0930176H6.66828C5.8687 0.0930158 5.10186 0.38715 4.53647 0.910715C3.97108 1.43428 3.65344 2.14439 3.65344 2.88482V29.3477C3.65344 30.0882 3.97108 30.7983 4.53647 31.3218C5.10186 31.8454 5.8687 32.1395 6.66828 32.1395H17.7043C18.5039 32.1395 19.2707 31.8454 19.8361 31.3218C20.4015 30.7983 20.7191 30.0882 20.7191 29.3477V11.142H20.9093V7.70847Z" fill="#5B5B5B"/>
<path d="M17.1434 1.32556H15.7768C15.9045 1.62088 15.8679 1.95678 15.6795 2.22149C15.491 2.48621 15.1753 2.645 14.8374 2.64502H8.83993C8.50204 2.645 8.18632 2.48621 7.99784 2.22149C7.80937 1.95678 7.77286 1.62088 7.90048 1.32556H6.62414C6.05771 1.32556 5.51448 1.53795 5.11395 1.916C4.71342 2.29405 4.4884 2.8068 4.4884 3.34145V28.8911C4.4884 29.4257 4.71342 29.9385 5.11395 30.3165C5.51447 30.6946 6.05771 30.907 6.62414 30.907H17.1434C17.7098 30.907 18.253 30.6946 18.6536 30.3165C19.0541 29.9385 19.2791 29.4257 19.2791 28.8911V3.34145C19.2791 2.8068 19.0541 2.29405 18.6536 1.916C18.253 1.53795 17.7098 1.32556 17.1434 1.32556Z" fill="#F3EC72"/>
<path d="M10.2863 17.5012C10.419 17.5993 10.6061 17.5713 10.7042 17.4386C10.8023 17.3059 10.7743 17.1188 10.6416 17.0207L10.2863 17.5012ZM10.6416 12.9691C10.7743 12.871 10.8023 12.6839 10.7042 12.5513C10.6061 12.4186 10.419 12.3905 10.2863 12.4886L10.6416 12.9691ZM13.8726 12.4874C13.7393 12.3902 13.5524 12.4195 13.4551 12.5528C13.3579 12.6862 13.3872 12.8731 13.5205 12.9703L13.8726 12.4874ZM13.5205 17.0436C13.3872 17.1409 13.3579 17.3278 13.4551 17.4611C13.5524 17.5944 13.7393 17.6237 13.8726 17.5265L13.5205 17.0436ZM8.61907 19.0353C8.74695 19.1396 8.93517 19.1205 9.03947 18.9926C9.14377 18.8648 9.12467 18.6766 8.99679 18.5723L8.61907 19.0353ZM8.99679 11.4176C9.12467 11.3133 9.14377 11.1251 9.03947 10.9972C8.93517 10.8693 8.74695 10.8502 8.61907 10.9545L8.99679 11.4176ZM15.5405 10.9538C15.4123 10.85 15.2242 10.8698 15.1203 10.998C15.0165 11.1263 15.0362 11.3144 15.1645 11.4182L15.5405 10.9538ZM15.1645 18.5957C15.0362 18.6995 15.0165 18.8877 15.1203 19.0159C15.2242 19.1442 15.4123 19.1639 15.5405 19.0601L15.1645 18.5957ZM10.6416 17.0207C9.97143 16.5253 9.58779 15.778 9.58779 14.9949H8.9902C8.9902 15.9775 9.47193 16.8991 10.2863 17.5012L10.6416 17.0207ZM9.58779 14.9949C9.58779 14.2118 9.97143 13.4646 10.6416 12.9691L10.2863 12.4886C9.47193 13.0907 8.9902 14.0124 8.9902 14.9949H9.58779ZM13.5205 12.9703C14.1996 13.4654 14.5892 14.2179 14.5892 15.007H15.1868C15.1868 14.0168 14.6976 13.0889 13.8726 12.4874L13.5205 12.9703ZM14.5892 15.007C14.5892 15.7961 14.1996 16.5485 13.5205 17.0436L13.8726 17.5265C14.6976 16.925 15.1868 15.9971 15.1868 15.007H14.5892ZM8.99679 18.5723C7.88446 17.665 7.25228 16.3601 7.25228 14.9949H6.6547C6.6547 16.5483 7.37438 18.0201 8.61907 19.0353L8.99679 18.5723ZM7.25228 14.9949C7.25228 13.6297 7.88446 12.3249 8.99679 11.4176L8.61907 10.9545C7.37438 11.9698 6.6547 13.4416 6.6547 14.9949H7.25228ZM15.1645 11.4182C16.2853 12.3258 16.923 13.6358 16.923 15.007H17.5206C17.5206 13.4468 16.7946 11.9693 15.5405 10.9538L15.1645 11.4182ZM16.923 15.007C16.923 16.3782 16.2853 17.6881 15.1645 18.5957L15.5405 19.0601C16.7946 18.0447 17.5206 16.5671 17.5206 15.007H16.923Z" fill="#5B5B5B"/>
</svg>
