<svg width="18" height="15" viewBox="0 0 18 15" fill="none" xmlns="http://www.w3.org/2000/svg">
<path d="M18 6.75V7.25C18 7.6875 17.6562 8 17.25 8H17L16.1562 13.7188C16.0625 14.4688 15.4375 15 14.6875 15H3.28125C2.53125 15 1.90625 14.4688 1.8125 13.7188L1 8H0.75C0.3125 8 0 7.6875 0 7.25V6.75C0 6.34375 0.3125 6 0.75 6H2.84375L6.1875 1.4375C6.5 0.96875 7.125 0.875 7.5625 1.21875C8.03125 1.53125 8.125 2.15625 7.78125 2.59375L5.3125 6H12.6562L10.1875 2.59375C9.84375 2.15625 9.9375 1.53125 10.4062 1.21875C10.8438 0.875 11.4688 0.96875 11.7812 1.4375L15.125 6H17.25C17.6562 6 18 6.34375 18 6.75ZM9.75 12.25V8.75C9.75 8.34375 9.40625 8 9 8C8.5625 8 8.25 8.34375 8.25 8.75V12.25C8.25 12.6875 8.5625 13 9 13C9.40625 13 9.75 12.6875 9.75 12.25ZM13.25 12.25V8.75C13.25 8.34375 12.9062 8 12.5 8C12.0625 8 11.75 8.34375 11.75 8.75V12.25C11.75 12.6875 12.0625 13 12.5 13C12.9062 13 13.25 12.6875 13.25 12.25ZM6.25 12.25V8.75C6.25 8.34375 5.90625 8 5.5 8C5.0625 8 4.75 8.34375 4.75 8.75V12.25C4.75 12.6875 5.0625 13 5.5 13C5.90625 13 6.25 12.6875 6.25 12.25Z" fill="#235789"/>
</svg>
