<svg width="21" height="18" viewBox="0 0 21 18" fill="none" xmlns="http://www.w3.org/2000/svg">
<path fill-rule="evenodd" clip-rule="evenodd" d="M13.0267 6.20874C12.8658 2.75264 10.0128 0 6.51691 0C2.91772 0 0 2.91772 0 6.51691C0 9.18112 1.59872 11.4719 3.88914 12.4823L4.17438 11.4178C2.34777 10.5431 1.08624 8.67735 1.08624 6.51691C1.08624 3.51759 3.51767 1.08615 6.517 1.08615C9.3114 1.08615 11.6129 3.19668 11.9143 5.91068L13.0267 6.20874ZM10.7654 5.60282C10.3455 3.64228 8.60298 2.1723 6.51708 2.1723C4.11762 2.1723 2.17248 4.11745 2.17248 6.51691C2.17248 8.17283 3.09889 9.61237 4.4617 10.3455L4.75335 9.25708C3.85416 8.67705 3.25883 7.6665 3.25883 6.51689C3.25883 4.7173 4.71769 3.25844 6.51728 3.25844C7.87584 3.25844 9.04021 4.08985 9.52933 5.27163L10.7654 5.60282ZM8.1218 5.68958C7.58834 5.54664 7.04 5.86322 6.89706 6.39669L5.00884 13.4436C4.8659 13.9771 5.18248 14.5254 5.71595 14.6684L17.4229 17.8052C17.9564 17.9482 18.5047 17.6316 18.6477 17.0981L20.5359 10.0512C20.6788 9.51774 20.3623 8.9694 19.8288 8.82646L8.1218 5.68958ZM8.40723 6.89045C8.14049 6.81898 7.86632 6.97727 7.79485 7.244L6.22831 13.0904C6.15684 13.3572 6.31513 13.6313 6.58186 13.7028L17.1565 16.5363C17.4232 16.6077 17.6974 16.4495 17.7689 16.1827L19.3354 10.3363C19.4069 10.0696 19.2486 9.79539 18.9819 9.72391L8.40723 6.89045ZM9.0452 8.12941C8.77846 8.05794 8.5043 8.21623 8.43282 8.48296L8.12941 9.61532C8.05794 9.88205 8.21623 10.1562 8.48296 10.2277L10.6645 10.8122C10.9312 10.8837 11.2054 10.7254 11.2768 10.4587L11.5802 9.32631C11.6517 9.05958 11.4934 8.78541 11.2267 8.71394L9.0452 8.12941Z" fill="#B7B7B7"/>
</svg>
