<svg width="21" height="21" viewBox="0 0 21 21" fill="none" xmlns="http://www.w3.org/2000/svg">
<path fill-rule="evenodd" clip-rule="evenodd" d="M21 9.622V11.573H19.05V13.524H17.095V11.443H15.149V9.622H17.095V7.672H19.046V9.622H21ZM6.826 9.622H13.068C13.068 10.012 13.198 10.272 13.198 10.662C13.198 14.433 10.727 17.162 6.826 17.162C5.0919 17.125 3.44132 16.4101 2.22805 15.1706C1.01479 13.931 0.33541 12.2655 0.335541 10.531C0.335672 8.79652 1.0153 7.13111 2.22875 5.89176C3.4422 4.65241 5.0929 3.93776 6.827 3.901C8.4621 3.88084 10.0433 4.48528 11.248 5.591L9.428 7.411C9.09076 7.06638 8.68535 6.7959 8.23767 6.61682C7.78998 6.43775 7.30987 6.35403 6.828 6.371C5.72643 6.37834 4.67207 6.81919 3.89313 7.59813C3.11418 8.37707 2.67333 9.43144 2.666 10.533C2.65887 11.0814 2.76164 11.6257 2.96823 12.1337C3.17481 12.6418 3.48104 13.1033 3.86886 13.4911C4.25667 13.879 4.71821 14.1852 5.22626 14.3918C5.73432 14.5984 6.27859 14.7011 6.827 14.694C7.69727 14.7654 8.56326 14.5129 9.25871 13.9848C9.95415 13.4568 10.43 12.6905 10.595 11.833H6.827L6.826 9.622Z" fill="#F7F7F7"/>
</svg>
