<svg width="21" height="21" viewBox="0 0 21 21" fill="none" xmlns="http://www.w3.org/2000/svg">
<path fill-rule="evenodd" clip-rule="evenodd" d="M6.65 19.033C8.26274 19.0476 9.86222 18.7406 11.355 18.1302C12.8478 17.5197 14.2041 16.6179 15.3445 15.4775C16.4849 14.3371 17.3867 12.9809 17.9972 11.488C18.6076 9.99524 18.9145 8.39576 18.9 6.78302V6.20002C19.7152 5.57932 20.4244 4.83061 21 3.98302C20.2177 4.32323 19.3939 4.5586 18.55 4.68302C19.4178 4.13836 20.0758 3.31611 20.417 2.35002C19.5738 2.81946 18.6709 3.17266 17.733 3.40002C17.3382 2.95544 16.8529 2.6005 16.3096 2.35903C15.7662 2.11755 15.1775 1.99514 14.583 2.00002C13.4434 2.01705 12.3552 2.47735 11.5493 3.28328C10.7433 4.08921 10.283 5.17739 10.266 6.31702C10.2396 6.63277 10.2794 6.95057 10.383 7.25002C8.66633 7.16703 6.98722 6.71814 5.45815 5.93343C3.92908 5.14871 2.58535 4.04629 1.517 2.70002C1.13317 3.37574 0.932221 4.13989 0.933998 4.91702C0.949486 5.62198 1.12561 6.31412 1.44897 6.94074C1.77233 7.56735 2.2344 8.11193 2.8 8.53302C2.09884 8.51896 1.4142 8.31767 0.817001 7.95002C0.815829 8.94924 1.16561 9.91714 1.8053 10.6848C2.44499 11.4524 3.33395 11.971 4.317 12.15C3.93701 12.2525 3.54278 12.2921 3.15 12.267C2.87248 12.2857 2.59413 12.2458 2.333 12.15C2.61837 13.0145 3.16372 13.7698 3.89452 14.3127C4.62533 14.8555 5.50593 15.1595 6.416 15.183C4.88263 16.3809 2.99578 17.0374 1.05 17.05C0.69595 17.0689 0.341206 17.0294 0 16.933C1.93063 18.335 4.26437 19.0719 6.65 19.033Z" fill="#F7F7F7"/>
</svg>
